<mxfile host="65bd71144e">
    <diagram id="d1754501236665" name="UML-ClassDiagram">
        <mxGraphModel dx="1339" dy="538" grid="1" gridSize="10" guides="1" tooltips="1" connect="1" arrows="1" fold="1" page="1" pageScale="1" pageWidth="850" pageHeight="1100" math="0" shadow="0">
            <root>
                <mxCell id="0"/>
                <mxCell id="1" parent="0"/>
                <mxCell id="2" style="umlClass;html=1;whiteSpace=wrap;rounded=1;strokeColor=#888888;fillColor=#AEC6CF;" parent="1" vertex="1">
                    <mxGeometry x="60" y="60" width="240" height="410" as="geometry"/>
                </mxCell>
                <mxCell id="3" value="&lt;b&gt;Pump&lt;/b&gt;" style="text;html=1;whiteSpace=wrap;verticalAlign=middle;align=center;fillColor=#AEC6CF;strokeColor=#888888;" parent="2" vertex="1">
                    <mxGeometry width="240" height="30" as="geometry"/>
                </mxCell>
                <mxCell id="4" value="ident: String" style="text;html=1;whiteSpace=wrap;verticalAlign=middle;align=left;fillColor=#E8DAEF;strokeColor=#888888;" parent="2" vertex="1">
                    <mxGeometry y="30" width="240" height="20" as="geometry"/>
                </mxCell>
                <mxCell id="5" value="isStarted: Boolean" style="text;html=1;whiteSpace=wrap;verticalAlign=middle;align=left;fillColor=#E8DAEF;strokeColor=#888888;" parent="2" vertex="1">
                    <mxGeometry y="50" width="240" height="20" as="geometry"/>
                </mxCell>
                <mxCell id="6" value="temperature: Real" style="text;html=1;whiteSpace=wrap;verticalAlign=middle;align=left;fillColor=#E8DAEF;strokeColor=#888888;" parent="2" vertex="1">
                    <mxGeometry y="70" width="240" height="20" as="geometry"/>
                </mxCell>
                <mxCell id="7" value="R1: Requirement" style="text;html=1;whiteSpace=wrap;verticalAlign=middle;align=left;fillColor=#FFDAC1;strokeColor=#888888;" parent="2" vertex="1">
                    <mxGeometry y="90" width="240" height="20" as="geometry"/>
                </mxCell>
                <mxCell id="8" value="&#39;during&#39; system.inOperation &#39;check count&#39; (pump.isStarted &#39;becomes true&#39;) &#39;&lt;=&#39; 2" style="text;html=1;whiteSpace=wrap;verticalAlign=top;align=left;fillColor=#FFE4B5;strokeColor=#888888;" parent="2" vertex="1">
                    <mxGeometry y="110" width="240" height="60" as="geometry"/>
                </mxCell>
                <mxCell id="9" value="R2: Requirement" style="text;html=1;whiteSpace=wrap;verticalAlign=middle;align=left;fillColor=#FFDAC1;strokeColor=#888888;" parent="2" vertex="1">
                    <mxGeometry y="170" width="240" height="20" as="geometry"/>
                </mxCell>
                <mxCell id="10" value="&#39;after&#39; pump.isStarted &#39;for&#39; 1*h &#39;check count&#39; (pump.isStarted &#39;becomes true&#39;) &#39;==&#39; 0" style="text;html=1;whiteSpace=wrap;verticalAlign=top;align=left;fillColor=#FFE4B5;strokeColor=#888888;" parent="2" vertex="1">
                    <mxGeometry y="190" width="240" height="60" as="geometry"/>
                </mxCell>
                <mxCell id="11" value="R3: Requirement" style="text;html=1;whiteSpace=wrap;verticalAlign=middle;align=left;fillColor=#FFDAC1;strokeColor=#888888;" parent="2" vertex="1">
                    <mxGeometry y="250" width="240" height="20" as="geometry"/>
                </mxCell>
                <mxCell id="12" value="&#39;during&#39; pump.isStarted &#39;ensure&#39; pump.temperature &lt; 50*degC" style="text;html=1;whiteSpace=wrap;verticalAlign=top;align=left;fillColor=#FFE4B5;strokeColor=#888888;" parent="2" vertex="1">
                    <mxGeometry y="270" width="240" height="40" as="geometry"/>
                </mxCell>
                <mxCell id="13" value="R4: Requirement" style="text;html=1;whiteSpace=wrap;verticalAlign=middle;align=left;fillColor=#FFDAC1;strokeColor=#888888;" parent="2" vertex="1">
                    <mxGeometry y="310" width="240" height="20" as="geometry"/>
                </mxCell>
                <mxCell id="14" value="&#39;during&#39; system.inOperation &#39;after&#39; pump.temperature &gt; 40*degC &#39;for&#39; 15*mn       &#39;check duration&#39; (pump.temperature &gt; 40*degC) &#39;&lt;&#39; 1*mn" style="text;html=1;whiteSpace=wrap;verticalAlign=top;align=left;fillColor=#FFE4B5;strokeColor=#888888;" parent="2" vertex="1">
                    <mxGeometry y="330" width="240" height="80" as="geometry"/>
                </mxCell>
                <mxCell id="15" style="umlClass;html=1;whiteSpace=wrap;rounded=1;strokeColor=#888888;fillColor=#AEC6CF;" parent="1" vertex="1">
                    <mxGeometry x="380" y="60" width="240" height="70" as="geometry"/>
                </mxCell>
                <mxCell id="16" value="&lt;b&gt;System&lt;/b&gt;" style="text;html=1;whiteSpace=wrap;verticalAlign=middle;align=center;fillColor=#AEC6CF;strokeColor=#888888;" parent="15" vertex="1">
                    <mxGeometry width="240" height="30" as="geometry"/>
                </mxCell>
                <mxCell id="17" value="pumps: Pump{}" style="text;html=1;whiteSpace=wrap;verticalAlign=middle;align=left;fillColor=#E8DAEF;strokeColor=#888888;" parent="15" vertex="1">
                    <mxGeometry y="30" width="240" height="20" as="geometry"/>
                </mxCell>
                <mxCell id="18" value="inOperation: Boolean" style="text;html=1;whiteSpace=wrap;verticalAlign=middle;align=left;fillColor=#E8DAEF;strokeColor=#888888;" parent="15" vertex="1">
                    <mxGeometry y="50" width="240" height="20" as="geometry"/>
                </mxCell>
                <mxCell id="19" value="&lt;i&gt;system: System&lt;/i&gt;" style="shape=ellipse;html=1;whiteSpace=wrap;rounded=1;strokeColor=#888888;fillColor=#FFF5BA;" parent="1" vertex="1">
                    <mxGeometry x="600" y="510" width="120" height="30" as="geometry"/>
                </mxCell>
                <mxCell id="20" value="&lt;i&gt;ident: Pump&lt;/i&gt;" style="shape=ellipse;html=1;whiteSpace=wrap;rounded=1;strokeColor=#888888;fillColor=#FFF5BA;" parent="1" vertex="1">
                    <mxGeometry x="160" y="780" width="120" height="30" as="geometry"/>
                </mxCell>
                <mxCell id="21" value="&lt;i&gt;ident_1: Pump&lt;/i&gt;" style="shape=ellipse;html=1;whiteSpace=wrap;rounded=1;strokeColor=#888888;fillColor=#FFF5BA;" parent="1" vertex="1">
                    <mxGeometry x="60" y="660" width="120" height="30" as="geometry"/>
                </mxCell>
                <mxCell id="22" value="&lt;i&gt;ident_2: Pump&lt;/i&gt;" style="shape=ellipse;html=1;whiteSpace=wrap;rounded=1;strokeColor=#888888;fillColor=#FFF5BA;" parent="1" vertex="1">
                    <mxGeometry x="260" y="660" width="120" height="30" as="geometry"/>
                </mxCell>
                <mxCell id="23" style="edgeStyle=orthogonalEdgeStyle;endArrow=open;dashed=1;strokeColor=#888888;" parent="1" source="19" target="15" edge="1">
                    <mxGeometry relative="1" as="geometry"/>
                </mxCell>
                <mxCell id="24" style="edgeStyle=orthogonalEdgeStyle;endArrow=open;dashed=1;strokeColor=#888888;" parent="1" source="20" target="2" edge="1">
                    <mxGeometry relative="1" as="geometry"/>
                </mxCell>
                <mxCell id="25" style="edgeStyle=orthogonalEdgeStyle;endArrow=open;dashed=1;strokeColor=#888888;" parent="1" source="21" target="2" edge="1">
                    <mxGeometry relative="1" as="geometry"/>
                </mxCell>
                <mxCell id="26" style="edgeStyle=orthogonalEdgeStyle;endArrow=open;dashed=1;strokeColor=#888888;" parent="1" source="22" target="2" edge="1">
                    <mxGeometry relative="1" as="geometry"/>
                </mxCell>
            </root>
        </mxGraphModel>
    </diagram>
</mxfile>